<svg width="1000" height="1000" viewBox="0 0 1000 1000" fill="none" xmlns="http://www.w3.org/2000/svg">
<g clip-path="url(#clip0_1_16)">
<path d="M500 0C223.883 0 0 223.867 0 500C0 776.133 223.883 1000 500 1000C776.133 1000 1000 776.133 1000 500C1000 223.867 776.133 0 500 0ZM500 966.667C242.683 966.667 33.3333 757.317 33.3333 500C33.3333 242.683 242.683 33.3333 500 33.3333C757.317 33.3333 966.667 242.683 966.667 500C966.667 757.317 757.317 966.667 500 966.667Z" fill="#00296B"/>
<path d="M500 610.617C561.092 610.617 610.617 561.092 610.617 500C610.617 438.908 561.092 389.383 500 389.383C438.908 389.383 389.383 438.908 389.383 500C389.383 561.092 438.908 610.617 500 610.617Z" fill="#00296B"/>
<path d="M713.817 528.9C715.1 519.417 715.983 509.817 715.983 500C715.983 380.9 619.1 284.017 500 284.017C490.167 284.017 480.583 284.9 471.1 286.183L342.8 95.8667C286.845 117.787 236.026 151.04 193.534 193.538C151.043 236.035 117.797 286.858 95.8833 342.817L286.167 471.083C284.9 480.55 284 490.167 284 499.983C284 619.083 380.883 715.967 500 715.967C509.833 715.967 519.417 715.083 528.9 713.8L657.167 904.117C713.125 882.194 763.948 848.941 806.445 806.445C848.941 763.948 882.194 713.125 904.117 657.167L713.817 528.9ZM328.25 500C328.25 405.3 405.283 328.25 500 328.25C594.7 328.25 671.75 405.3 671.75 500C671.75 594.7 594.7 671.75 500 671.75C405.283 671.75 328.25 594.7 328.25 500Z" fill="#00296B"/>
</g>
<defs>
<clipPath id="clip0_1_16">
<rect width="1000" height="1000" fill="white"/>
</clipPath>
</defs>
</svg>
